<?xml version="1.0" encoding="UTF-8" standalone="no"?>
<svg width="207px" height="95px" viewBox="0 0 207 95" version="1.1" xmlns="http://www.w3.org/2000/svg" xmlns:xlink="http://www.w3.org/1999/xlink" xmlns:sketch="http://www.bohemiancoding.com/sketch/ns">
    <!-- Generator: Sketch 3.2.1 (9977) - http://www.bohemiancoding.com/sketch -->
    <title>icarus_logo</title>
    <desc>Created with Sketch.</desc>
    <defs></defs>
    <g id="Page-1" stroke="none" stroke-width="1" fill="none" fill-rule="evenodd" sketch:type="MSPage">
        <path d="M128.59082,39.2700195 C111.70459,41.5375977 113.430664,52.6020508 113.430664,53.9858398 C113.430664,55.3696289 114.852539,58.1914062 122.161133,58.1914062 C129.469726,58.1914062 147.246582,68.512207 154.761719,59.1791992 C147.246582,59.1791992 135.411621,58.1914062 121.342773,53.9858398 C140.658203,53.9858398 158.856445,59.1259766 161.731934,52.7114258 C155.519043,52.7114258 154.348633,54.3696289 119.893555,50.6826172 C132.662109,50.0644531 167.074219,52.3642578 168.591797,45.5488281 C161.731933,47.269043 152.738525,48.6745605 126.15625,47.8662109 C148.319824,42.6015625 176.439453,47.3300781 181.304688,34.512207 C166.651367,40.1816406 150.354004,43.8164062 127.834961,45.2001953 C181.065918,32.1640625 188.648437,34.512207 193.895019,20.0708008 C185.333984,32.9160156 145.477051,37.0024414 128.59082,39.2700195 Z" id="Path-1" stroke="#D7022E" fill="#D7022E" sketch:type="MSShapeGroup"></path>
        <text id="ICARUS" sketch:type="MSTextLayer" font-family="Iowan Old Style" font-size="26" font-weight="normal" fill="#D7022E">
            <tspan x="10" y="63">ICARUS</tspan>
        </text>
        <text id="INVESTMENT-GROUP" sketch:type="MSTextLayer" font-family="Iowan Old Style" font-size="17" font-weight="normal" fill="#797979">
            <tspan x="13" y="79">INVESTMENT GROUP</tspan>
        </text>
    </g>
</svg>